<mxfile host="65bd71144e">
    <diagram id="XtL6IbKMvyueGsmoGMX2" name="Diagram">
        <mxGraphModel dx="1130" dy="910" grid="1" gridSize="10" guides="1" tooltips="1" connect="1" arrows="1" fold="1" page="1" pageScale="1" pageWidth="827" pageHeight="1169" math="0" shadow="0">
            <root>
                <mxCell id="1mXCvFOLN-pHFZSBTCuR-0"/>
                <mxCell id="1mXCvFOLN-pHFZSBTCuR-1" parent="1mXCvFOLN-pHFZSBTCuR-0"/>
                <mxCell id="lLlsw3Is72uZ628sNjDk-0" value="" style="ellipse;html=1;shape=startState;fillColor=#000000;strokeColor=#ff0000;fontFamily=Helvetica;fontSize=12;fontColor=default;" vertex="1" parent="1mXCvFOLN-pHFZSBTCuR-1">
                    <mxGeometry x="197.75" y="90" width="30" height="30" as="geometry"/>
                </mxCell>
                <mxCell id="lLlsw3Is72uZ628sNjDk-1" value="" style="edgeStyle=orthogonalEdgeStyle;html=1;verticalAlign=bottom;endArrow=open;endSize=8;strokeColor=#ff0000;fontFamily=Helvetica;fontSize=12;fontColor=default;" edge="1" parent="1mXCvFOLN-pHFZSBTCuR-1" source="lLlsw3Is72uZ628sNjDk-0">
                    <mxGeometry relative="1" as="geometry">
                        <mxPoint x="212.75" y="180" as="targetPoint"/>
                    </mxGeometry>
                </mxCell>
                <mxCell id="lLlsw3Is72uZ628sNjDk-2" value="" style="edgeStyle=none;html=1;fontFamily=Helvetica;fontSize=12;fontColor=default;" edge="1" parent="1mXCvFOLN-pHFZSBTCuR-1" source="lLlsw3Is72uZ628sNjDk-3" target="lLlsw3Is72uZ628sNjDk-19">
                    <mxGeometry relative="1" as="geometry"/>
                </mxCell>
                <mxCell id="lLlsw3Is72uZ628sNjDk-3" value="User enters a value" style="rounded=1;whiteSpace=wrap;html=1;fontFamily=Helvetica;fontSize=12;strokeColor=#6c8ebf;fillColor=#dae8fc;" vertex="1" parent="1mXCvFOLN-pHFZSBTCuR-1">
                    <mxGeometry x="152.75" y="180" width="120" height="60" as="geometry"/>
                </mxCell>
                <mxCell id="lLlsw3Is72uZ628sNjDk-4" value="" style="edgeStyle=none;html=1;fontFamily=Helvetica;fontSize=12;fontColor=default;" edge="1" parent="1mXCvFOLN-pHFZSBTCuR-1" source="lLlsw3Is72uZ628sNjDk-6" target="lLlsw3Is72uZ628sNjDk-7">
                    <mxGeometry relative="1" as="geometry"/>
                </mxCell>
                <mxCell id="lLlsw3Is72uZ628sNjDk-5" value="" style="edgeStyle=none;html=1;fontFamily=Helvetica;fontSize=12;fontColor=default;" edge="1" parent="1mXCvFOLN-pHFZSBTCuR-1" source="lLlsw3Is72uZ628sNjDk-6" target="lLlsw3Is72uZ628sNjDk-12">
                    <mxGeometry relative="1" as="geometry"/>
                </mxCell>
                <mxCell id="lLlsw3Is72uZ628sNjDk-6" value="Is number higher&lt;br&gt;than 1581?" style="rhombus;whiteSpace=wrap;html=1;rounded=1;fillColor=#ffe6cc;strokeColor=#d79b00;" vertex="1" parent="1mXCvFOLN-pHFZSBTCuR-1">
                    <mxGeometry x="149" y="470" width="127.5" height="130" as="geometry"/>
                </mxCell>
                <mxCell id="lLlsw3Is72uZ628sNjDk-7" value="Program stops and gives instruction to user" style="whiteSpace=wrap;html=1;fillColor=#dae8fc;strokeColor=#6c8ebf;rounded=1;" vertex="1" parent="1mXCvFOLN-pHFZSBTCuR-1">
                    <mxGeometry x="152.75" y="666" width="120" height="60" as="geometry"/>
                </mxCell>
                <mxCell id="lLlsw3Is72uZ628sNjDk-8" value="Yes" style="text;html=1;strokeColor=none;fillColor=none;align=center;verticalAlign=middle;whiteSpace=wrap;rounded=0;fontFamily=Helvetica;fontSize=12;fontColor=default;" vertex="1" parent="1mXCvFOLN-pHFZSBTCuR-1">
                    <mxGeometry x="287.75" y="505" width="60" height="30" as="geometry"/>
                </mxCell>
                <mxCell id="lLlsw3Is72uZ628sNjDk-9" value="No" style="text;html=1;strokeColor=none;fillColor=none;align=center;verticalAlign=middle;whiteSpace=wrap;rounded=0;fontFamily=Helvetica;fontSize=12;fontColor=default;" vertex="1" parent="1mXCvFOLN-pHFZSBTCuR-1">
                    <mxGeometry x="197.75" y="630" width="60" height="30" as="geometry"/>
                </mxCell>
                <mxCell id="lLlsw3Is72uZ628sNjDk-10" value="" style="edgeStyle=none;html=1;fontFamily=Helvetica;fontSize=12;fontColor=default;" edge="1" parent="1mXCvFOLN-pHFZSBTCuR-1" source="lLlsw3Is72uZ628sNjDk-12" target="lLlsw3Is72uZ628sNjDk-13">
                    <mxGeometry relative="1" as="geometry"/>
                </mxCell>
                <mxCell id="lLlsw3Is72uZ628sNjDk-11" value="" style="edgeStyle=none;html=1;fontFamily=Helvetica;fontSize=12;fontColor=default;" edge="1" parent="1mXCvFOLN-pHFZSBTCuR-1" source="lLlsw3Is72uZ628sNjDk-12" target="lLlsw3Is72uZ628sNjDk-14">
                    <mxGeometry relative="1" as="geometry"/>
                </mxCell>
                <mxCell id="lLlsw3Is72uZ628sNjDk-12" value="Is number qualified&lt;br&gt;as a leap year?" style="rhombus;whiteSpace=wrap;html=1;fillColor=#ffe6cc;strokeColor=#d79b00;rounded=1;" vertex="1" parent="1mXCvFOLN-pHFZSBTCuR-1">
                    <mxGeometry x="347.75" y="470" width="123.75" height="130" as="geometry"/>
                </mxCell>
                <mxCell id="lLlsw3Is72uZ628sNjDk-13" value="&lt;span&gt;Program stops and displays &quot;yay&quot;&lt;/span&gt;" style="whiteSpace=wrap;html=1;fillColor=#dae8fc;strokeColor=#6c8ebf;rounded=1;" vertex="1" parent="1mXCvFOLN-pHFZSBTCuR-1">
                    <mxGeometry x="557.755" y="505" width="120" height="60" as="geometry"/>
                </mxCell>
                <mxCell id="lLlsw3Is72uZ628sNjDk-14" value="Program stops and displays &quot;nay&quot;" style="whiteSpace=wrap;html=1;fillColor=#dae8fc;strokeColor=#6c8ebf;rounded=1;" vertex="1" parent="1mXCvFOLN-pHFZSBTCuR-1">
                    <mxGeometry x="349.625" y="666" width="120" height="60" as="geometry"/>
                </mxCell>
                <mxCell id="lLlsw3Is72uZ628sNjDk-15" value="Yes" style="text;html=1;strokeColor=none;fillColor=none;align=center;verticalAlign=middle;whiteSpace=wrap;rounded=0;fontFamily=Helvetica;fontSize=12;fontColor=default;" vertex="1" parent="1mXCvFOLN-pHFZSBTCuR-1">
                    <mxGeometry x="497.75" y="505" width="60" height="30" as="geometry"/>
                </mxCell>
                <mxCell id="lLlsw3Is72uZ628sNjDk-16" value="No" style="text;html=1;strokeColor=none;fillColor=none;align=center;verticalAlign=middle;whiteSpace=wrap;rounded=0;fontFamily=Helvetica;fontSize=12;fontColor=default;" vertex="1" parent="1mXCvFOLN-pHFZSBTCuR-1">
                    <mxGeometry x="397.75" y="630" width="60" height="30" as="geometry"/>
                </mxCell>
                <mxCell id="lLlsw3Is72uZ628sNjDk-17" value="" style="edgeStyle=none;html=1;fontFamily=Helvetica;fontSize=12;fontColor=default;" edge="1" parent="1mXCvFOLN-pHFZSBTCuR-1" source="lLlsw3Is72uZ628sNjDk-19" target="lLlsw3Is72uZ628sNjDk-6">
                    <mxGeometry relative="1" as="geometry"/>
                </mxCell>
                <mxCell id="lLlsw3Is72uZ628sNjDk-18" value="" style="edgeStyle=none;html=1;fontFamily=Helvetica;fontSize=12;fontColor=default;" edge="1" parent="1mXCvFOLN-pHFZSBTCuR-1" source="lLlsw3Is72uZ628sNjDk-19" target="lLlsw3Is72uZ628sNjDk-21">
                    <mxGeometry relative="1" as="geometry"/>
                </mxCell>
                <mxCell id="lLlsw3Is72uZ628sNjDk-19" value="Can entered value&lt;br&gt;be converted to number?" style="rhombus;whiteSpace=wrap;html=1;fillColor=#ffe6cc;strokeColor=#d79b00;rounded=1;" vertex="1" parent="1mXCvFOLN-pHFZSBTCuR-1">
                    <mxGeometry x="149" y="290" width="127.5" height="130" as="geometry"/>
                </mxCell>
                <mxCell id="lLlsw3Is72uZ628sNjDk-20" value="Yes" style="text;html=1;strokeColor=none;fillColor=none;align=center;verticalAlign=middle;whiteSpace=wrap;rounded=0;fontFamily=Helvetica;fontSize=12;fontColor=default;" vertex="1" parent="1mXCvFOLN-pHFZSBTCuR-1">
                    <mxGeometry x="197.75" y="440" width="60" height="30" as="geometry"/>
                </mxCell>
                <mxCell id="lLlsw3Is72uZ628sNjDk-21" value="Program stops and gives instruction to user" style="whiteSpace=wrap;html=1;fillColor=#dae8fc;strokeColor=#6c8ebf;rounded=1;" vertex="1" parent="1mXCvFOLN-pHFZSBTCuR-1">
                    <mxGeometry x="360.25" y="325" width="120" height="60" as="geometry"/>
                </mxCell>
                <mxCell id="lLlsw3Is72uZ628sNjDk-22" value="No" style="text;html=1;strokeColor=none;fillColor=none;align=center;verticalAlign=middle;whiteSpace=wrap;rounded=0;fontFamily=Helvetica;fontSize=12;fontColor=default;" vertex="1" parent="1mXCvFOLN-pHFZSBTCuR-1">
                    <mxGeometry x="300.25" y="325" width="60" height="30" as="geometry"/>
                </mxCell>
            </root>
        </mxGraphModel>
    </diagram>
    <diagram id="MPucOLjxwU8bSd0QELVI" name="Page-2">
        <mxGraphModel dx="1233" dy="993" grid="1" gridSize="10" guides="1" tooltips="1" connect="1" arrows="1" fold="1" page="1" pageScale="1" pageWidth="827" pageHeight="1169" math="0" shadow="0">
            <root>
                <mxCell id="kKsewJMovADbJ3ReqDQg-0"/>
                <mxCell id="kKsewJMovADbJ3ReqDQg-1" parent="kKsewJMovADbJ3ReqDQg-0"/>
                <mxCell id="oxbA8LfIucuDRA5Tv_VT-0" value="" style="edgeStyle=none;html=1;" edge="1" parent="kKsewJMovADbJ3ReqDQg-1" source="oxbA8LfIucuDRA5Tv_VT-1" target="oxbA8LfIucuDRA5Tv_VT-4">
                    <mxGeometry relative="1" as="geometry"/>
                </mxCell>
                <mxCell id="oxbA8LfIucuDRA5Tv_VT-1" value="&lt;b&gt;&lt;font style=&quot;font-size: 12px&quot;&gt;command: dotnet run --project MyApp&lt;/font&gt;&lt;/b&gt;" style="text;html=1;strokeColor=none;fillColor=none;align=center;verticalAlign=middle;whiteSpace=wrap;rounded=0;" vertex="1" parent="kKsewJMovADbJ3ReqDQg-1">
                    <mxGeometry x="322.5" y="50" width="235" height="30" as="geometry"/>
                </mxCell>
                <mxCell id="oxbA8LfIucuDRA5Tv_VT-2" value="&lt;p style=&quot;margin: 0px ; margin-top: 4px ; text-align: center&quot;&gt;&lt;b&gt;LeapYear&lt;/b&gt;&lt;/p&gt;&lt;hr size=&quot;1&quot;&gt;&lt;p style=&quot;margin: 0px ; margin-left: 4px&quot;&gt;+ method(): isLeapYear&lt;br&gt;&lt;/p&gt;&lt;hr size=&quot;1&quot;&gt;&lt;p style=&quot;margin: 0px ; margin-left: 4px&quot;&gt;+ method(): isLeapYearWithUserInput&lt;/p&gt;" style="verticalAlign=top;align=left;overflow=fill;fontSize=12;fontFamily=Helvetica;html=1;fillColor=#f8cecc;strokeColor=#b85450;" vertex="1" parent="kKsewJMovADbJ3ReqDQg-1">
                    <mxGeometry x="330" y="280" width="220" height="90" as="geometry"/>
                </mxCell>
                <mxCell id="oxbA8LfIucuDRA5Tv_VT-3" value="" style="edgeStyle=none;html=1;" edge="1" parent="kKsewJMovADbJ3ReqDQg-1" source="oxbA8LfIucuDRA5Tv_VT-4" target="oxbA8LfIucuDRA5Tv_VT-2">
                    <mxGeometry relative="1" as="geometry"/>
                </mxCell>
                <mxCell id="oxbA8LfIucuDRA5Tv_VT-4" value="&lt;p style=&quot;margin: 0px ; margin-top: 4px ; text-align: center&quot;&gt;&lt;b&gt;Program&lt;/b&gt;&lt;/p&gt;&lt;hr size=&quot;1&quot;&gt;&lt;p style=&quot;margin: 0px ; margin-left: 4px&quot;&gt;+ creates instance of LeapYear&lt;br&gt;&lt;/p&gt;&lt;hr size=&quot;1&quot;&gt;&lt;p style=&quot;margin: 0px ; margin-left: 4px&quot;&gt;+ calls method() in LeapYear&lt;/p&gt;" style="verticalAlign=top;align=left;overflow=fill;fontSize=12;fontFamily=Helvetica;html=1;fillColor=#f8cecc;strokeColor=#b85450;" vertex="1" parent="kKsewJMovADbJ3ReqDQg-1">
                    <mxGeometry x="330" y="120" width="220" height="90" as="geometry"/>
                </mxCell>
                <mxCell id="oxbA8LfIucuDRA5Tv_VT-5" value="&lt;p style=&quot;margin: 0px ; margin-top: 4px ; text-align: center&quot;&gt;&lt;b&gt;MyAppTest&lt;/b&gt;&lt;/p&gt;&lt;hr size=&quot;1&quot;&gt;&lt;p style=&quot;margin: 0px ; margin-left: 4px&quot;&gt;+ method():&amp;nbsp;&lt;span style=&quot;background-color: rgb(255 , 255 , 255)&quot;&gt;Checks_if_year_2000_is_leap_year&lt;/span&gt;&lt;/p&gt;&lt;hr size=&quot;1&quot;&gt;&lt;p style=&quot;margin: 0px ; margin-left: 4px&quot;&gt;+ method():&amp;nbsp;&lt;span style=&quot;background-color: rgb(255 , 255 , 255)&quot;&gt;Checks_if_year_1700_is_leap_year()&lt;/span&gt;&lt;/p&gt;&lt;hr&gt;&amp;nbsp;+ method():&amp;nbsp;&lt;span style=&quot;background-color: rgb(255 , 255 , 255)&quot;&gt;Checks_if_user_gets_yay_feedback&lt;/span&gt;&lt;hr&gt;&amp;nbsp;+ method(): C&lt;span style=&quot;background-color: rgb(255 , 255 , 255)&quot;&gt;heck_exception_when_year_before_1582&lt;/span&gt;&lt;hr&gt;&amp;nbsp;+ method():&amp;nbsp;&lt;span style=&quot;background-color: rgb(255 , 255 , 255)&quot;&gt;Check_exception_when_input_is_invalid&lt;/span&gt;&lt;p&gt;&lt;/p&gt;" style="verticalAlign=top;align=left;overflow=fill;fontSize=12;fontFamily=Helvetica;html=1;fillColor=#f5f5f5;fontColor=#333333;strokeColor=#666666;" vertex="1" parent="kKsewJMovADbJ3ReqDQg-1">
                    <mxGeometry x="670" y="240" width="320" height="170" as="geometry"/>
                </mxCell>
                <mxCell id="oxbA8LfIucuDRA5Tv_VT-6" value="" style="endArrow=none;dashed=1;html=1;dashPattern=1 3;strokeWidth=2;fontFamily=Helvetica;fontSize=12;fontColor=default;entryX=0;entryY=0.5;entryDx=0;entryDy=0;exitX=1;exitY=0.5;exitDx=0;exitDy=0;" edge="1" parent="kKsewJMovADbJ3ReqDQg-1" source="oxbA8LfIucuDRA5Tv_VT-2" target="oxbA8LfIucuDRA5Tv_VT-5">
                    <mxGeometry width="50" height="50" relative="1" as="geometry">
                        <mxPoint x="570" y="340" as="sourcePoint"/>
                        <mxPoint x="620" y="290" as="targetPoint"/>
                    </mxGeometry>
                </mxCell>
                <mxCell id="oxbA8LfIucuDRA5Tv_VT-7" value="" style="rounded=0;whiteSpace=wrap;html=1;fontFamily=Helvetica;fontSize=12;" vertex="1" parent="kKsewJMovADbJ3ReqDQg-1">
                    <mxGeometry x="60" y="40" width="210" height="170" as="geometry"/>
                </mxCell>
                <mxCell id="oxbA8LfIucuDRA5Tv_VT-8" value="" style="endArrow=none;dashed=1;html=1;dashPattern=1 3;strokeWidth=2;fontFamily=Helvetica;fontSize=12;fontColor=default;" edge="1" parent="kKsewJMovADbJ3ReqDQg-1">
                    <mxGeometry width="50" height="50" relative="1" as="geometry">
                        <mxPoint x="90" y="64.5" as="sourcePoint"/>
                        <mxPoint x="130" y="64.5" as="targetPoint"/>
                    </mxGeometry>
                </mxCell>
                <mxCell id="oxbA8LfIucuDRA5Tv_VT-9" value="Tests methods in class" style="text;html=1;strokeColor=none;fillColor=none;align=center;verticalAlign=middle;whiteSpace=wrap;rounded=0;fontFamily=Helvetica;fontSize=12;fontColor=default;" vertex="1" parent="kKsewJMovADbJ3ReqDQg-1">
                    <mxGeometry x="150" y="50" width="100" height="30" as="geometry"/>
                </mxCell>
                <mxCell id="oxbA8LfIucuDRA5Tv_VT-10" value="" style="endArrow=classic;html=1;fontFamily=Helvetica;fontSize=12;fontColor=default;" edge="1" parent="kKsewJMovADbJ3ReqDQg-1">
                    <mxGeometry width="50" height="50" relative="1" as="geometry">
                        <mxPoint x="90" y="100" as="sourcePoint"/>
                        <mxPoint x="130" y="100" as="targetPoint"/>
                    </mxGeometry>
                </mxCell>
                <mxCell id="oxbA8LfIucuDRA5Tv_VT-11" value="Flow of execution" style="text;html=1;strokeColor=none;fillColor=none;align=center;verticalAlign=middle;whiteSpace=wrap;rounded=0;fontFamily=Helvetica;fontSize=12;fontColor=default;" vertex="1" parent="kKsewJMovADbJ3ReqDQg-1">
                    <mxGeometry x="150" y="90" width="100" height="30" as="geometry"/>
                </mxCell>
            </root>
        </mxGraphModel>
    </diagram>
</mxfile>